<mxfile host="app.diagrams.net" agent="Mozilla/5.0 (X11; Linux x86_64) AppleWebKit/537.36 (KHTML, like Gecko) Chrome/127.0.0.0 Safari/537.36" version="24.7.7">
  <diagram name="Page-1" id="tX0GcUoLAsVhllJjicZS">
    <mxGraphModel dx="2261" dy="799" grid="1" gridSize="10" guides="1" tooltips="1" connect="1" arrows="1" fold="1" page="1" pageScale="1" pageWidth="827" pageHeight="1169" math="0" shadow="0">
      <root>
        <mxCell id="0" />
        <mxCell id="1" parent="0" />
        <mxCell id="98bV3qOC04BYmBuGV0b9-18" value="Appointment" style="rounded=1;whiteSpace=wrap;html=1;" vertex="1" parent="1">
          <mxGeometry x="400" y="400" width="120" height="60" as="geometry" />
        </mxCell>
        <mxCell id="98bV3qOC04BYmBuGV0b9-19" value="&lt;u&gt;user_id&lt;/u&gt;" style="ellipse;whiteSpace=wrap;html=1;" vertex="1" parent="1">
          <mxGeometry x="370" y="160" width="120" height="80" as="geometry" />
        </mxCell>
        <mxCell id="98bV3qOC04BYmBuGV0b9-20" value="&lt;u&gt;patient_id&lt;/u&gt;" style="ellipse;whiteSpace=wrap;html=1;" vertex="1" parent="1">
          <mxGeometry x="610" y="240" width="120" height="80" as="geometry" />
        </mxCell>
        <mxCell id="98bV3qOC04BYmBuGV0b9-21" value="&lt;u&gt;doctor_id&lt;/u&gt;" style="ellipse;whiteSpace=wrap;html=1;" vertex="1" parent="1">
          <mxGeometry x="510" y="170" width="120" height="80" as="geometry" />
        </mxCell>
        <mxCell id="98bV3qOC04BYmBuGV0b9-24" value="&lt;u&gt;appointment_id&lt;/u&gt;" style="ellipse;whiteSpace=wrap;html=1;" vertex="1" parent="1">
          <mxGeometry x="640" y="330" width="120" height="80" as="geometry" />
        </mxCell>
        <mxCell id="98bV3qOC04BYmBuGV0b9-28" value="" style="endArrow=classic;html=1;rounded=0;exitX=0.567;exitY=1.013;exitDx=0;exitDy=0;exitPerimeter=0;entryX=0.375;entryY=0.033;entryDx=0;entryDy=0;entryPerimeter=0;" edge="1" parent="1" source="98bV3qOC04BYmBuGV0b9-19" target="98bV3qOC04BYmBuGV0b9-18">
          <mxGeometry width="50" height="50" relative="1" as="geometry">
            <mxPoint x="410" y="340" as="sourcePoint" />
            <mxPoint x="460" y="290" as="targetPoint" />
          </mxGeometry>
        </mxCell>
        <mxCell id="98bV3qOC04BYmBuGV0b9-29" value="" style="endArrow=classic;html=1;rounded=0;exitX=0.5;exitY=1;exitDx=0;exitDy=0;entryX=0.6;entryY=-0.017;entryDx=0;entryDy=0;entryPerimeter=0;" edge="1" parent="1" source="98bV3qOC04BYmBuGV0b9-21" target="98bV3qOC04BYmBuGV0b9-18">
          <mxGeometry width="50" height="50" relative="1" as="geometry">
            <mxPoint x="420" y="350" as="sourcePoint" />
            <mxPoint x="470" y="300" as="targetPoint" />
          </mxGeometry>
        </mxCell>
        <mxCell id="98bV3qOC04BYmBuGV0b9-30" value="" style="endArrow=classic;html=1;rounded=0;exitX=0;exitY=1;exitDx=0;exitDy=0;entryX=0.75;entryY=0;entryDx=0;entryDy=0;" edge="1" parent="1" source="98bV3qOC04BYmBuGV0b9-20" target="98bV3qOC04BYmBuGV0b9-18">
          <mxGeometry width="50" height="50" relative="1" as="geometry">
            <mxPoint x="430" y="360" as="sourcePoint" />
            <mxPoint x="480" y="310" as="targetPoint" />
          </mxGeometry>
        </mxCell>
        <mxCell id="98bV3qOC04BYmBuGV0b9-31" value="" style="endArrow=classic;html=1;rounded=0;entryX=1;entryY=0;entryDx=0;entryDy=0;exitX=0;exitY=0.5;exitDx=0;exitDy=0;" edge="1" parent="1" source="98bV3qOC04BYmBuGV0b9-24" target="98bV3qOC04BYmBuGV0b9-18">
          <mxGeometry width="50" height="50" relative="1" as="geometry">
            <mxPoint x="440" y="370" as="sourcePoint" />
            <mxPoint x="490" y="320" as="targetPoint" />
          </mxGeometry>
        </mxCell>
        <mxCell id="98bV3qOC04BYmBuGV0b9-32" value="Users&lt;div&gt;(receptionist)&lt;/div&gt;" style="rounded=1;whiteSpace=wrap;html=1;" vertex="1" parent="1">
          <mxGeometry x="-70" y="600" width="120" height="60" as="geometry" />
        </mxCell>
        <mxCell id="98bV3qOC04BYmBuGV0b9-33" value="Patients" style="rounded=1;whiteSpace=wrap;html=1;" vertex="1" parent="1">
          <mxGeometry x="264" y="780" width="120" height="60" as="geometry" />
        </mxCell>
        <mxCell id="98bV3qOC04BYmBuGV0b9-34" value="Doctors" style="rounded=1;whiteSpace=wrap;html=1;" vertex="1" parent="1">
          <mxGeometry x="490" y="780" width="120" height="60" as="geometry" />
        </mxCell>
        <mxCell id="98bV3qOC04BYmBuGV0b9-39" value="Schedule" style="rounded=1;whiteSpace=wrap;html=1;" vertex="1" parent="1">
          <mxGeometry x="780" y="620" width="120" height="60" as="geometry" />
        </mxCell>
        <mxCell id="98bV3qOC04BYmBuGV0b9-41" value="&lt;u&gt;schedule_id&lt;/u&gt;" style="ellipse;whiteSpace=wrap;html=1;" vertex="1" parent="1">
          <mxGeometry x="960" y="510" width="120" height="80" as="geometry" />
        </mxCell>
        <mxCell id="98bV3qOC04BYmBuGV0b9-42" value="" style="endArrow=classic;html=1;rounded=0;exitX=0;exitY=0.5;exitDx=0;exitDy=0;entryX=1;entryY=0.25;entryDx=0;entryDy=0;" edge="1" parent="1" source="98bV3qOC04BYmBuGV0b9-41" target="98bV3qOC04BYmBuGV0b9-39">
          <mxGeometry width="50" height="50" relative="1" as="geometry">
            <mxPoint x="510" y="540" as="sourcePoint" />
            <mxPoint x="560" y="490" as="targetPoint" />
          </mxGeometry>
        </mxCell>
        <mxCell id="98bV3qOC04BYmBuGV0b9-43" value="&lt;div&gt;time slot&lt;/div&gt;(int)" style="ellipse;whiteSpace=wrap;html=1;" vertex="1" parent="1">
          <mxGeometry x="980" y="680" width="120" height="80" as="geometry" />
        </mxCell>
        <mxCell id="98bV3qOC04BYmBuGV0b9-44" value="date" style="ellipse;whiteSpace=wrap;html=1;" vertex="1" parent="1">
          <mxGeometry x="1020" y="590" width="120" height="80" as="geometry" />
        </mxCell>
        <mxCell id="98bV3qOC04BYmBuGV0b9-45" value="" style="endArrow=classic;html=1;rounded=0;exitX=0;exitY=0.5;exitDx=0;exitDy=0;entryX=1;entryY=0.75;entryDx=0;entryDy=0;" edge="1" parent="1" source="98bV3qOC04BYmBuGV0b9-44" target="98bV3qOC04BYmBuGV0b9-39">
          <mxGeometry width="50" height="50" relative="1" as="geometry">
            <mxPoint x="604" y="900" as="sourcePoint" />
            <mxPoint x="614" y="980" as="targetPoint" />
          </mxGeometry>
        </mxCell>
        <mxCell id="98bV3qOC04BYmBuGV0b9-46" value="" style="endArrow=classic;html=1;rounded=0;exitX=0;exitY=0.5;exitDx=0;exitDy=0;entryX=1;entryY=1;entryDx=0;entryDy=0;" edge="1" parent="1" source="98bV3qOC04BYmBuGV0b9-43" target="98bV3qOC04BYmBuGV0b9-39">
          <mxGeometry width="50" height="50" relative="1" as="geometry">
            <mxPoint x="614" y="910" as="sourcePoint" />
            <mxPoint x="584" y="680" as="targetPoint" />
          </mxGeometry>
        </mxCell>
        <mxCell id="98bV3qOC04BYmBuGV0b9-47" value="&lt;u&gt;schedule_id&lt;/u&gt;" style="ellipse;whiteSpace=wrap;html=1;" vertex="1" parent="1">
          <mxGeometry x="240" y="180" width="120" height="80" as="geometry" />
        </mxCell>
        <mxCell id="98bV3qOC04BYmBuGV0b9-48" value="" style="endArrow=classic;html=1;rounded=0;exitX=1;exitY=1;exitDx=0;exitDy=0;entryX=0.15;entryY=-0.017;entryDx=0;entryDy=0;entryPerimeter=0;" edge="1" parent="1" source="98bV3qOC04BYmBuGV0b9-47" target="98bV3qOC04BYmBuGV0b9-18">
          <mxGeometry width="50" height="50" relative="1" as="geometry">
            <mxPoint x="390" y="460" as="sourcePoint" />
            <mxPoint x="440" y="410" as="targetPoint" />
          </mxGeometry>
        </mxCell>
        <mxCell id="98bV3qOC04BYmBuGV0b9-49" value="" style="endArrow=none;html=1;rounded=0;exitX=1;exitY=0;exitDx=0;exitDy=0;entryX=0.058;entryY=0.967;entryDx=0;entryDy=0;entryPerimeter=0;" edge="1" parent="1" source="98bV3qOC04BYmBuGV0b9-32" target="98bV3qOC04BYmBuGV0b9-18">
          <mxGeometry width="50" height="50" relative="1" as="geometry">
            <mxPoint x="390" y="580" as="sourcePoint" />
            <mxPoint x="440" y="530" as="targetPoint" />
          </mxGeometry>
        </mxCell>
        <mxCell id="98bV3qOC04BYmBuGV0b9-50" value="" style="endArrow=none;html=1;rounded=0;exitX=0.5;exitY=0;exitDx=0;exitDy=0;entryX=0.342;entryY=0.95;entryDx=0;entryDy=0;entryPerimeter=0;" edge="1" parent="1" source="98bV3qOC04BYmBuGV0b9-33" target="98bV3qOC04BYmBuGV0b9-18">
          <mxGeometry width="50" height="50" relative="1" as="geometry">
            <mxPoint x="390" y="580" as="sourcePoint" />
            <mxPoint x="440" y="530" as="targetPoint" />
          </mxGeometry>
        </mxCell>
        <mxCell id="98bV3qOC04BYmBuGV0b9-51" value="" style="endArrow=none;html=1;rounded=0;exitX=0.25;exitY=0;exitDx=0;exitDy=0;entryX=1;entryY=1;entryDx=0;entryDy=0;" edge="1" parent="1" source="98bV3qOC04BYmBuGV0b9-39" target="98bV3qOC04BYmBuGV0b9-18">
          <mxGeometry width="50" height="50" relative="1" as="geometry">
            <mxPoint x="390" y="580" as="sourcePoint" />
            <mxPoint x="440" y="530" as="targetPoint" />
          </mxGeometry>
        </mxCell>
        <mxCell id="98bV3qOC04BYmBuGV0b9-52" value="" style="endArrow=none;html=1;rounded=0;exitX=0.5;exitY=0;exitDx=0;exitDy=0;entryX=0.75;entryY=1;entryDx=0;entryDy=0;" edge="1" parent="1" source="98bV3qOC04BYmBuGV0b9-34" target="98bV3qOC04BYmBuGV0b9-18">
          <mxGeometry width="50" height="50" relative="1" as="geometry">
            <mxPoint x="390" y="580" as="sourcePoint" />
            <mxPoint x="440" y="530" as="targetPoint" />
          </mxGeometry>
        </mxCell>
        <mxCell id="98bV3qOC04BYmBuGV0b9-54" value="doctor_id" style="ellipse;whiteSpace=wrap;html=1;" vertex="1" parent="1">
          <mxGeometry x="860" y="440" width="120" height="80" as="geometry" />
        </mxCell>
        <mxCell id="98bV3qOC04BYmBuGV0b9-55" value="" style="endArrow=classic;html=1;rounded=0;exitX=0.417;exitY=1.038;exitDx=0;exitDy=0;entryX=0.567;entryY=-0.05;entryDx=0;entryDy=0;exitPerimeter=0;entryPerimeter=0;" edge="1" parent="1" source="98bV3qOC04BYmBuGV0b9-54" target="98bV3qOC04BYmBuGV0b9-39">
          <mxGeometry width="50" height="50" relative="1" as="geometry">
            <mxPoint x="510" y="560" as="sourcePoint" />
            <mxPoint x="560" y="510" as="targetPoint" />
          </mxGeometry>
        </mxCell>
        <mxCell id="98bV3qOC04BYmBuGV0b9-56" value="" style="endArrow=none;html=1;rounded=0;exitX=1;exitY=0.5;exitDx=0;exitDy=0;entryX=0;entryY=0.5;entryDx=0;entryDy=0;" edge="1" parent="1" source="98bV3qOC04BYmBuGV0b9-34" target="98bV3qOC04BYmBuGV0b9-39">
          <mxGeometry width="50" height="50" relative="1" as="geometry">
            <mxPoint x="730" y="580" as="sourcePoint" />
            <mxPoint x="780" y="530" as="targetPoint" />
          </mxGeometry>
        </mxCell>
        <mxCell id="98bV3qOC04BYmBuGV0b9-57" value="Admin" style="rounded=1;whiteSpace=wrap;html=1;" vertex="1" parent="1">
          <mxGeometry x="900" y="830" width="120" height="60" as="geometry" />
        </mxCell>
        <mxCell id="98bV3qOC04BYmBuGV0b9-63" value="summary" style="ellipse;whiteSpace=wrap;html=1;" vertex="1" parent="1">
          <mxGeometry x="140" y="250" width="120" height="80" as="geometry" />
        </mxCell>
        <mxCell id="98bV3qOC04BYmBuGV0b9-64" value="" style="endArrow=classic;html=1;rounded=0;exitX=0.933;exitY=0.763;exitDx=0;exitDy=0;exitPerimeter=0;entryX=0;entryY=0;entryDx=0;entryDy=0;" edge="1" parent="1" source="98bV3qOC04BYmBuGV0b9-63" target="98bV3qOC04BYmBuGV0b9-18">
          <mxGeometry width="50" height="50" relative="1" as="geometry">
            <mxPoint x="710" y="530" as="sourcePoint" />
            <mxPoint x="390" y="400" as="targetPoint" />
          </mxGeometry>
        </mxCell>
        <mxCell id="98bV3qOC04BYmBuGV0b9-65" value="report" style="ellipse;whiteSpace=wrap;html=1;" vertex="1" parent="1">
          <mxGeometry x="120" y="350" width="120" height="80" as="geometry" />
        </mxCell>
        <mxCell id="98bV3qOC04BYmBuGV0b9-66" value="" style="endArrow=classic;html=1;rounded=0;exitX=1;exitY=0.5;exitDx=0;exitDy=0;entryX=0;entryY=0.5;entryDx=0;entryDy=0;" edge="1" parent="1" source="98bV3qOC04BYmBuGV0b9-65" target="98bV3qOC04BYmBuGV0b9-18">
          <mxGeometry width="50" height="50" relative="1" as="geometry">
            <mxPoint x="710" y="530" as="sourcePoint" />
            <mxPoint x="760" y="480" as="targetPoint" />
          </mxGeometry>
        </mxCell>
        <mxCell id="98bV3qOC04BYmBuGV0b9-67" value="" style="endArrow=none;html=1;rounded=0;exitX=1;exitY=0.5;exitDx=0;exitDy=0;entryX=0;entryY=0.5;entryDx=0;entryDy=0;" edge="1" parent="1" source="98bV3qOC04BYmBuGV0b9-32" target="98bV3qOC04BYmBuGV0b9-33">
          <mxGeometry width="50" height="50" relative="1" as="geometry">
            <mxPoint x="570" y="570" as="sourcePoint" />
            <mxPoint x="620" y="520" as="targetPoint" />
          </mxGeometry>
        </mxCell>
        <mxCell id="98bV3qOC04BYmBuGV0b9-79" value="&lt;u&gt;user_id&lt;/u&gt;" style="ellipse;whiteSpace=wrap;html=1;" vertex="1" parent="1">
          <mxGeometry x="-260" y="580" width="120" height="80" as="geometry" />
        </mxCell>
        <mxCell id="98bV3qOC04BYmBuGV0b9-80" value="name" style="ellipse;whiteSpace=wrap;html=1;" vertex="1" parent="1">
          <mxGeometry x="-240" y="680" width="120" height="80" as="geometry" />
        </mxCell>
        <mxCell id="98bV3qOC04BYmBuGV0b9-82" value="" style="endArrow=classic;html=1;rounded=0;exitX=1;exitY=0.5;exitDx=0;exitDy=0;entryX=0;entryY=0.5;entryDx=0;entryDy=0;" edge="1" parent="1" source="98bV3qOC04BYmBuGV0b9-79" target="98bV3qOC04BYmBuGV0b9-32">
          <mxGeometry width="50" height="50" relative="1" as="geometry">
            <mxPoint x="310" y="640" as="sourcePoint" />
            <mxPoint x="360" y="590" as="targetPoint" />
          </mxGeometry>
        </mxCell>
        <mxCell id="98bV3qOC04BYmBuGV0b9-83" value="" style="endArrow=classic;html=1;rounded=0;exitX=1;exitY=0.5;exitDx=0;exitDy=0;entryX=0;entryY=1;entryDx=0;entryDy=0;" edge="1" parent="1" source="98bV3qOC04BYmBuGV0b9-80" target="98bV3qOC04BYmBuGV0b9-32">
          <mxGeometry width="50" height="50" relative="1" as="geometry">
            <mxPoint x="310" y="640" as="sourcePoint" />
            <mxPoint x="360" y="590" as="targetPoint" />
          </mxGeometry>
        </mxCell>
        <mxCell id="98bV3qOC04BYmBuGV0b9-84" value="&lt;u&gt;patient_id&lt;/u&gt;" style="ellipse;whiteSpace=wrap;html=1;" vertex="1" parent="1">
          <mxGeometry x="-10" y="920" width="120" height="80" as="geometry" />
        </mxCell>
        <mxCell id="98bV3qOC04BYmBuGV0b9-85" value="name" style="ellipse;whiteSpace=wrap;html=1;" vertex="1" parent="1">
          <mxGeometry x="60" y="1000" width="120" height="80" as="geometry" />
        </mxCell>
        <mxCell id="98bV3qOC04BYmBuGV0b9-86" value="&lt;div&gt;&lt;span style=&quot;background-color: initial;&quot;&gt;contactNo&lt;/span&gt;&lt;br&gt;&lt;/div&gt;" style="ellipse;whiteSpace=wrap;html=1;" vertex="1" parent="1">
          <mxGeometry x="295" y="1060" width="120" height="80" as="geometry" />
        </mxCell>
        <mxCell id="98bV3qOC04BYmBuGV0b9-87" value="" style="endArrow=classic;html=1;rounded=0;entryX=0;entryY=1;entryDx=0;entryDy=0;" edge="1" parent="1" source="98bV3qOC04BYmBuGV0b9-84" target="98bV3qOC04BYmBuGV0b9-33">
          <mxGeometry width="50" height="50" relative="1" as="geometry">
            <mxPoint x="394" y="820" as="sourcePoint" />
            <mxPoint x="444" y="770" as="targetPoint" />
          </mxGeometry>
        </mxCell>
        <mxCell id="98bV3qOC04BYmBuGV0b9-88" value="" style="endArrow=classic;html=1;rounded=0;exitX=0.5;exitY=0;exitDx=0;exitDy=0;entryX=0.75;entryY=1;entryDx=0;entryDy=0;" edge="1" parent="1" source="98bV3qOC04BYmBuGV0b9-86" target="98bV3qOC04BYmBuGV0b9-33">
          <mxGeometry width="50" height="50" relative="1" as="geometry">
            <mxPoint x="394" y="820" as="sourcePoint" />
            <mxPoint x="444" y="770" as="targetPoint" />
          </mxGeometry>
        </mxCell>
        <mxCell id="98bV3qOC04BYmBuGV0b9-89" value="" style="endArrow=classic;html=1;rounded=0;entryX=0.25;entryY=1;entryDx=0;entryDy=0;" edge="1" parent="1" source="98bV3qOC04BYmBuGV0b9-85" target="98bV3qOC04BYmBuGV0b9-33">
          <mxGeometry width="50" height="50" relative="1" as="geometry">
            <mxPoint x="394" y="820" as="sourcePoint" />
            <mxPoint x="444" y="770" as="targetPoint" />
          </mxGeometry>
        </mxCell>
        <mxCell id="98bV3qOC04BYmBuGV0b9-91" value="&lt;u&gt;doctor_id&lt;/u&gt;" style="ellipse;whiteSpace=wrap;html=1;" vertex="1" parent="1">
          <mxGeometry x="460" y="1020" width="120" height="80" as="geometry" />
        </mxCell>
        <mxCell id="98bV3qOC04BYmBuGV0b9-92" value="name" style="ellipse;whiteSpace=wrap;html=1;" vertex="1" parent="1">
          <mxGeometry x="660" y="930" width="120" height="80" as="geometry" />
        </mxCell>
        <mxCell id="98bV3qOC04BYmBuGV0b9-93" value="contactNo" style="ellipse;whiteSpace=wrap;html=1;" vertex="1" parent="1">
          <mxGeometry x="707" y="850" width="120" height="80" as="geometry" />
        </mxCell>
        <mxCell id="98bV3qOC04BYmBuGV0b9-94" value="" style="endArrow=classic;html=1;rounded=0;exitX=0.5;exitY=0;exitDx=0;exitDy=0;entryX=0.25;entryY=1;entryDx=0;entryDy=0;" edge="1" parent="1" source="98bV3qOC04BYmBuGV0b9-91" target="98bV3qOC04BYmBuGV0b9-34">
          <mxGeometry width="50" height="50" relative="1" as="geometry">
            <mxPoint x="460" y="820" as="sourcePoint" />
            <mxPoint x="510" y="770" as="targetPoint" />
          </mxGeometry>
        </mxCell>
        <mxCell id="98bV3qOC04BYmBuGV0b9-95" value="" style="endArrow=classic;html=1;rounded=0;exitX=0.1;exitY=0.15;exitDx=0;exitDy=0;exitPerimeter=0;entryX=0.75;entryY=1;entryDx=0;entryDy=0;" edge="1" parent="1" source="98bV3qOC04BYmBuGV0b9-92" target="98bV3qOC04BYmBuGV0b9-34">
          <mxGeometry width="50" height="50" relative="1" as="geometry">
            <mxPoint x="460" y="820" as="sourcePoint" />
            <mxPoint x="510" y="770" as="targetPoint" />
          </mxGeometry>
        </mxCell>
        <mxCell id="98bV3qOC04BYmBuGV0b9-96" value="" style="endArrow=classic;html=1;rounded=0;exitX=0;exitY=0.5;exitDx=0;exitDy=0;entryX=1;entryY=1;entryDx=0;entryDy=0;" edge="1" parent="1" source="98bV3qOC04BYmBuGV0b9-93" target="98bV3qOC04BYmBuGV0b9-34">
          <mxGeometry width="50" height="50" relative="1" as="geometry">
            <mxPoint x="460" y="820" as="sourcePoint" />
            <mxPoint x="510" y="770" as="targetPoint" />
          </mxGeometry>
        </mxCell>
        <mxCell id="98bV3qOC04BYmBuGV0b9-103" value="1" style="text;html=1;align=center;verticalAlign=middle;resizable=0;points=[];autosize=1;strokeColor=none;fillColor=none;" vertex="1" parent="1">
          <mxGeometry x="35" y="568" width="30" height="30" as="geometry" />
        </mxCell>
        <mxCell id="98bV3qOC04BYmBuGV0b9-104" value="n" style="text;html=1;align=center;verticalAlign=middle;resizable=0;points=[];autosize=1;strokeColor=none;fillColor=none;" vertex="1" parent="1">
          <mxGeometry x="360" y="440" width="30" height="30" as="geometry" />
        </mxCell>
        <mxCell id="98bV3qOC04BYmBuGV0b9-105" value="1" style="text;html=1;align=center;verticalAlign=middle;resizable=0;points=[];autosize=1;strokeColor=none;fillColor=none;" vertex="1" parent="1">
          <mxGeometry x="45" y="650" width="30" height="30" as="geometry" />
        </mxCell>
        <mxCell id="98bV3qOC04BYmBuGV0b9-106" value="n" style="text;html=1;align=center;verticalAlign=middle;resizable=0;points=[];autosize=1;strokeColor=none;fillColor=none;" vertex="1" parent="1">
          <mxGeometry x="220" y="785" width="30" height="30" as="geometry" />
        </mxCell>
        <mxCell id="98bV3qOC04BYmBuGV0b9-107" value="1" style="text;html=1;align=center;verticalAlign=middle;resizable=0;points=[];autosize=1;strokeColor=none;fillColor=none;" vertex="1" parent="1">
          <mxGeometry x="295" y="738" width="30" height="30" as="geometry" />
        </mxCell>
        <mxCell id="98bV3qOC04BYmBuGV0b9-108" value="n" style="text;html=1;align=center;verticalAlign=middle;resizable=0;points=[];autosize=1;strokeColor=none;fillColor=none;" vertex="1" parent="1">
          <mxGeometry x="395" y="468" width="30" height="30" as="geometry" />
        </mxCell>
        <mxCell id="98bV3qOC04BYmBuGV0b9-109" value="1" style="text;html=1;align=center;verticalAlign=middle;resizable=0;points=[];autosize=1;strokeColor=none;fillColor=none;" vertex="1" parent="1">
          <mxGeometry x="550" y="750" width="30" height="30" as="geometry" />
        </mxCell>
        <mxCell id="98bV3qOC04BYmBuGV0b9-110" value="n" style="text;html=1;align=center;verticalAlign=middle;resizable=0;points=[];autosize=1;strokeColor=none;fillColor=none;" vertex="1" parent="1">
          <mxGeometry x="495" y="468" width="30" height="30" as="geometry" />
        </mxCell>
        <mxCell id="98bV3qOC04BYmBuGV0b9-111" value="1" style="text;html=1;align=center;verticalAlign=middle;resizable=0;points=[];autosize=1;strokeColor=none;fillColor=none;" vertex="1" parent="1">
          <mxGeometry x="795" y="578" width="30" height="30" as="geometry" />
        </mxCell>
        <mxCell id="98bV3qOC04BYmBuGV0b9-112" value="1" style="text;html=1;align=center;verticalAlign=middle;resizable=0;points=[];autosize=1;strokeColor=none;fillColor=none;" vertex="1" parent="1">
          <mxGeometry x="535" y="428" width="30" height="30" as="geometry" />
        </mxCell>
        <mxCell id="98bV3qOC04BYmBuGV0b9-113" value="1" style="text;html=1;align=center;verticalAlign=middle;resizable=0;points=[];autosize=1;strokeColor=none;fillColor=none;" vertex="1" parent="1">
          <mxGeometry x="620" y="795" width="30" height="30" as="geometry" />
        </mxCell>
        <mxCell id="98bV3qOC04BYmBuGV0b9-114" value="n" style="text;html=1;align=center;verticalAlign=middle;resizable=0;points=[];autosize=1;strokeColor=none;fillColor=none;" vertex="1" parent="1">
          <mxGeometry x="750" y="680" width="30" height="30" as="geometry" />
        </mxCell>
        <mxCell id="98bV3qOC04BYmBuGV0b9-116" value="speciality" style="ellipse;whiteSpace=wrap;html=1;" vertex="1" parent="1">
          <mxGeometry x="587" y="1000" width="120" height="80" as="geometry" />
        </mxCell>
        <mxCell id="98bV3qOC04BYmBuGV0b9-117" value="" style="endArrow=classic;html=1;rounded=0;entryX=0.5;entryY=1;entryDx=0;entryDy=0;" edge="1" parent="1" source="98bV3qOC04BYmBuGV0b9-116" target="98bV3qOC04BYmBuGV0b9-34">
          <mxGeometry width="50" height="50" relative="1" as="geometry">
            <mxPoint x="390" y="1050" as="sourcePoint" />
            <mxPoint x="440" y="1000" as="targetPoint" />
          </mxGeometry>
        </mxCell>
        <mxCell id="98bV3qOC04BYmBuGV0b9-118" value="age" style="ellipse;whiteSpace=wrap;html=1;" vertex="1" parent="1">
          <mxGeometry x="170" y="1050" width="120" height="80" as="geometry" />
        </mxCell>
        <mxCell id="98bV3qOC04BYmBuGV0b9-119" value="" style="endArrow=classic;html=1;rounded=0;exitX=0.675;exitY=0.05;exitDx=0;exitDy=0;exitPerimeter=0;entryX=0.5;entryY=1;entryDx=0;entryDy=0;" edge="1" parent="1" source="98bV3qOC04BYmBuGV0b9-118" target="98bV3qOC04BYmBuGV0b9-33">
          <mxGeometry width="50" height="50" relative="1" as="geometry">
            <mxPoint x="390" y="880" as="sourcePoint" />
            <mxPoint x="440" y="830" as="targetPoint" />
          </mxGeometry>
        </mxCell>
        <mxCell id="98bV3qOC04BYmBuGV0b9-120" value="password" style="ellipse;whiteSpace=wrap;html=1;" vertex="1" parent="1">
          <mxGeometry x="-180" y="768" width="120" height="80" as="geometry" />
        </mxCell>
        <mxCell id="98bV3qOC04BYmBuGV0b9-121" value="" style="endArrow=classic;html=1;rounded=0;exitX=1;exitY=0;exitDx=0;exitDy=0;entryX=0.5;entryY=1;entryDx=0;entryDy=0;" edge="1" parent="1" source="98bV3qOC04BYmBuGV0b9-120" target="98bV3qOC04BYmBuGV0b9-32">
          <mxGeometry width="50" height="50" relative="1" as="geometry">
            <mxPoint x="390" y="750" as="sourcePoint" />
            <mxPoint x="440" y="700" as="targetPoint" />
          </mxGeometry>
        </mxCell>
        <mxCell id="98bV3qOC04BYmBuGV0b9-122" value="password" style="ellipse;whiteSpace=wrap;html=1;" vertex="1" parent="1">
          <mxGeometry x="880" y="990" width="120" height="80" as="geometry" />
        </mxCell>
        <mxCell id="98bV3qOC04BYmBuGV0b9-123" value="" style="endArrow=classic;html=1;rounded=0;exitX=0.5;exitY=0;exitDx=0;exitDy=0;entryX=0.25;entryY=1;entryDx=0;entryDy=0;" edge="1" parent="1" source="98bV3qOC04BYmBuGV0b9-122" target="98bV3qOC04BYmBuGV0b9-57">
          <mxGeometry width="50" height="50" relative="1" as="geometry">
            <mxPoint x="390" y="750" as="sourcePoint" />
            <mxPoint x="440" y="700" as="targetPoint" />
          </mxGeometry>
        </mxCell>
        <mxCell id="98bV3qOC04BYmBuGV0b9-124" value="id" style="ellipse;whiteSpace=wrap;html=1;" vertex="1" parent="1">
          <mxGeometry x="1050" y="950" width="120" height="80" as="geometry" />
        </mxCell>
        <mxCell id="98bV3qOC04BYmBuGV0b9-125" value="" style="endArrow=classic;html=1;rounded=0;exitX=0;exitY=0;exitDx=0;exitDy=0;entryX=1;entryY=1;entryDx=0;entryDy=0;" edge="1" parent="1" source="98bV3qOC04BYmBuGV0b9-124" target="98bV3qOC04BYmBuGV0b9-57">
          <mxGeometry width="50" height="50" relative="1" as="geometry">
            <mxPoint x="1020" y="750" as="sourcePoint" />
            <mxPoint x="1070" y="700" as="targetPoint" />
          </mxGeometry>
        </mxCell>
        <mxCell id="98bV3qOC04BYmBuGV0b9-126" value="password" style="ellipse;whiteSpace=wrap;html=1;" vertex="1" parent="1">
          <mxGeometry x="705" y="760" width="120" height="80" as="geometry" />
        </mxCell>
        <mxCell id="98bV3qOC04BYmBuGV0b9-127" value="" style="endArrow=classic;html=1;rounded=0;entryX=1;entryY=0.75;entryDx=0;entryDy=0;exitX=0.042;exitY=0.625;exitDx=0;exitDy=0;exitPerimeter=0;" edge="1" parent="1" source="98bV3qOC04BYmBuGV0b9-126" target="98bV3qOC04BYmBuGV0b9-34">
          <mxGeometry width="50" height="50" relative="1" as="geometry">
            <mxPoint x="460" y="790" as="sourcePoint" />
            <mxPoint x="510" y="740" as="targetPoint" />
          </mxGeometry>
        </mxCell>
        <mxCell id="98bV3qOC04BYmBuGV0b9-130" value="user_id" style="ellipse;whiteSpace=wrap;html=1;" vertex="1" parent="1">
          <mxGeometry x="-30" y="830" width="120" height="80" as="geometry" />
        </mxCell>
        <mxCell id="98bV3qOC04BYmBuGV0b9-131" value="" style="endArrow=classic;html=1;rounded=0;exitX=1;exitY=0.5;exitDx=0;exitDy=0;entryX=0;entryY=0.75;entryDx=0;entryDy=0;" edge="1" parent="1" source="98bV3qOC04BYmBuGV0b9-130" target="98bV3qOC04BYmBuGV0b9-33">
          <mxGeometry width="50" height="50" relative="1" as="geometry">
            <mxPoint x="440" y="940" as="sourcePoint" />
            <mxPoint x="490" y="890" as="targetPoint" />
          </mxGeometry>
        </mxCell>
        <mxCell id="98bV3qOC04BYmBuGV0b9-132" value="&lt;div&gt;&lt;span style=&quot;background-color: initial;&quot;&gt;contactNo&lt;/span&gt;&lt;br&gt;&lt;/div&gt;" style="ellipse;whiteSpace=wrap;html=1;" vertex="1" parent="1">
          <mxGeometry x="-230" y="480" width="120" height="80" as="geometry" />
        </mxCell>
        <mxCell id="98bV3qOC04BYmBuGV0b9-133" value="" style="endArrow=classic;html=1;rounded=0;exitX=0.967;exitY=0.738;exitDx=0;exitDy=0;exitPerimeter=0;entryX=0;entryY=0;entryDx=0;entryDy=0;" edge="1" parent="1" source="98bV3qOC04BYmBuGV0b9-132" target="98bV3qOC04BYmBuGV0b9-32">
          <mxGeometry width="50" height="50" relative="1" as="geometry">
            <mxPoint x="430" y="780" as="sourcePoint" />
            <mxPoint x="480" y="730" as="targetPoint" />
          </mxGeometry>
        </mxCell>
      </root>
    </mxGraphModel>
  </diagram>
</mxfile>
